<mxfile host="app.diagrams.net" agent="Mozilla/5.0 (Macintosh; Intel Mac OS X 10_15_7) AppleWebKit/537.36 (KHTML, like Gecko) Chrome/134.0.0.0 Safari/537.36" version="26.2.3">
  <diagram id="C5RBs43oDa-KdzZeNtuy" name="Page-1">
    <mxGraphModel dx="2310" dy="948" grid="1" gridSize="10" guides="1" tooltips="1" connect="1" arrows="1" fold="1" page="1" pageScale="1" pageWidth="827" pageHeight="1169" background="#ffffff" math="0" shadow="0">
      <root>
        <mxCell id="WIyWlLk6GJQsqaUBKTNV-0" />
        <mxCell id="WIyWlLk6GJQsqaUBKTNV-1" parent="WIyWlLk6GJQsqaUBKTNV-0" />
        <mxCell id="fxNe-FiFpgeiYGXsgPsK-25" value="collect" style="text;html=1;align=center;verticalAlign=middle;whiteSpace=wrap;rounded=0;fontFamily=Helvetica;fontColor=#143642;fontStyle=1;sketch=1;curveFitting=1;jiggle=2;" parent="WIyWlLk6GJQsqaUBKTNV-1" vertex="1">
          <mxGeometry x="-701.5" y="259" width="61" height="20" as="geometry" />
        </mxCell>
        <mxCell id="fxNe-FiFpgeiYGXsgPsK-17" value="&lt;div&gt;&lt;b style=&quot;font-family: Helvetica; background-color: transparent; color: light-dark(rgb(0, 0, 0), rgb(255, 255, 255));&quot;&gt;store&lt;/b&gt;&lt;/div&gt;" style="shape=cylinder3;whiteSpace=wrap;html=1;boundedLbl=1;backgroundOutline=1;size=15;hachureGap=4;strokeColor=#b85450;fontFamily=Architects Daughter;fontSource=https%3A%2F%2Ffonts.googleapis.com%2Fcss%3Ffamily%3DArchitects%2BDaughter;fillColor=#f8cecc;sketch=1;curveFitting=1;jiggle=2;" parent="WIyWlLk6GJQsqaUBKTNV-1" vertex="1">
          <mxGeometry x="-507" y="600" width="108" height="90" as="geometry" />
        </mxCell>
        <mxCell id="fxNe-FiFpgeiYGXsgPsK-44" value="" style="edgeStyle=entityRelationEdgeStyle;fontSize=12;html=1;endArrow=ERmandOne;startArrow=ERmandOne;rounded=0;hachureGap=4;strokeColor=#A8201A;fontFamily=Architects Daughter;fontSource=https%3A%2F%2Ffonts.googleapis.com%2Fcss%3Ffamily%3DArchitects%2BDaughter;fontColor=#143642;fillColor=#FAE5C7;exitX=0.994;exitY=0.084;exitDx=0;exitDy=0;exitPerimeter=0;sketch=1;curveFitting=1;jiggle=2;entryX=0;entryY=0.5;entryDx=0;entryDy=0;entryPerimeter=0;" parent="WIyWlLk6GJQsqaUBKTNV-1" source="fxNe-FiFpgeiYGXsgPsK-52" target="fxNe-FiFpgeiYGXsgPsK-17" edge="1">
          <mxGeometry width="100" height="100" relative="1" as="geometry">
            <mxPoint x="61.74000000000001" y="687.6800000000001" as="sourcePoint" />
            <mxPoint x="457" y="590" as="targetPoint" />
          </mxGeometry>
        </mxCell>
        <mxCell id="fxNe-FiFpgeiYGXsgPsK-46" value="" style="endArrow=classic;html=1;rounded=0;hachureGap=4;strokeColor=#A8201A;fontFamily=Architects Daughter;fontSource=https%3A%2F%2Ffonts.googleapis.com%2Fcss%3Ffamily%3DArchitects%2BDaughter;fontColor=#143642;fillColor=#FAE5C7;sketch=1;curveFitting=1;jiggle=2;exitX=0.643;exitY=0.98;exitDx=0;exitDy=0;curved=1;exitPerimeter=0;entryX=0;entryY=0;entryDx=0;entryDy=30;entryPerimeter=0;" parent="WIyWlLk6GJQsqaUBKTNV-1" source="6vJvpQA5Eh7JnFEgR5Vv-38" target="fxNe-FiFpgeiYGXsgPsK-17" edge="1">
          <mxGeometry width="50" height="50" relative="1" as="geometry">
            <mxPoint x="-615.1199999999999" y="528.4799999999998" as="sourcePoint" />
            <mxPoint x="-510" y="620" as="targetPoint" />
            <Array as="points">
              <mxPoint x="-580" y="630" />
            </Array>
          </mxGeometry>
        </mxCell>
        <mxCell id="fxNe-FiFpgeiYGXsgPsK-47" value="&lt;span&gt;&lt;font&gt;&lt;i&gt;write&lt;/i&gt;&lt;/font&gt;&lt;/span&gt;" style="edgeLabel;html=1;align=center;verticalAlign=middle;resizable=0;points=[];hachureGap=4;strokeColor=#0F8B8D;fontFamily=Helvetica;fontColor=#143642;fillColor=#FAE5C7;sketch=1;curveFitting=1;jiggle=2;" parent="fxNe-FiFpgeiYGXsgPsK-46" vertex="1" connectable="0">
          <mxGeometry x="0.064" y="-1" relative="1" as="geometry">
            <mxPoint x="-5" y="-14" as="offset" />
          </mxGeometry>
        </mxCell>
        <mxCell id="fxNe-FiFpgeiYGXsgPsK-48" value="" style="endArrow=classic;html=1;rounded=0;hachureGap=4;strokeColor=#A8201A;fontFamily=Architects Daughter;fontSource=https%3A%2F%2Ffonts.googleapis.com%2Fcss%3Ffamily%3DArchitects%2BDaughter;fontColor=#143642;fillColor=#FAE5C7;sketch=1;curveFitting=1;jiggle=2;exitX=0.467;exitY=1.09;exitDx=0;exitDy=0;exitPerimeter=0;curved=1;entryX=0.329;entryY=0.022;entryDx=0;entryDy=0;entryPerimeter=0;" parent="WIyWlLk6GJQsqaUBKTNV-1" source="fxNe-FiFpgeiYGXsgPsK-82" target="6vJvpQA5Eh7JnFEgR5Vv-38" edge="1">
          <mxGeometry width="50" height="50" relative="1" as="geometry">
            <mxPoint x="-674" y="399" as="sourcePoint" />
            <mxPoint x="-291.5000000000002" y="819" as="targetPoint" />
            <Array as="points">
              <mxPoint x="-677" y="470" />
            </Array>
          </mxGeometry>
        </mxCell>
        <mxCell id="fxNe-FiFpgeiYGXsgPsK-52" value="&lt;font style=&quot;&quot; face=&quot;Helvetica&quot;&gt;I18nGroups&lt;/font&gt;" style="swimlane;childLayout=stackLayout;resizeParent=1;resizeParentMax=0;horizontal=1;startSize=20;horizontalStack=0;html=1;hachureGap=4;strokeColor=#0F8B8D;fontFamily=Architects Daughter;fontSource=https%3A%2F%2Ffonts.googleapis.com%2Fcss%3Ffamily%3DArchitects%2BDaughter;fontColor=#143642;fillColor=#FAE5C7;sketch=1;curveFitting=1;jiggle=2;" parent="WIyWlLk6GJQsqaUBKTNV-1" vertex="1">
          <mxGeometry x="-761" y="660" width="134" height="157" as="geometry" />
        </mxCell>
        <mxCell id="fxNe-FiFpgeiYGXsgPsK-53" value="" style="swimlane;startSize=20;horizontal=0;html=1;hachureGap=4;strokeColor=#0F8B8D;fontFamily=Architects Daughter;fontSource=https%3A%2F%2Ffonts.googleapis.com%2Fcss%3Ffamily%3DArchitects%2BDaughter;fontColor=#143642;fillColor=#FAE5C7;flipV=0;flipH=0;sketch=1;curveFitting=1;jiggle=2;" parent="fxNe-FiFpgeiYGXsgPsK-52" vertex="1">
          <mxGeometry y="20" width="134" height="97" as="geometry">
            <mxRectangle y="20" width="146" height="30" as="alternateBounds" />
          </mxGeometry>
        </mxCell>
        <mxCell id="fxNe-FiFpgeiYGXsgPsK-58" value="&lt;div style=&quot;line-height: 18px; white-space: pre;&quot;&gt;&lt;font face=&quot;Helvetica&quot; style=&quot;color: rgb(0, 0, 0);&quot;&gt;key: string;&lt;/font&gt;&lt;/div&gt;" style="text;strokeColor=none;fillColor=none;align=left;verticalAlign=middle;spacingLeft=4;spacingRight=4;overflow=hidden;points=[[0,0.5],[1,0.5]];portConstraint=eastwest;rotatable=0;whiteSpace=wrap;html=1;fontFamily=Architects Daughter;fontSource=https%3A%2F%2Ffonts.googleapis.com%2Fcss%3Ffamily%3DArchitects%2BDaughter;fontColor=#143642;sketch=1;curveFitting=1;jiggle=2;" parent="fxNe-FiFpgeiYGXsgPsK-53" vertex="1">
          <mxGeometry x="20" width="114" height="20" as="geometry" />
        </mxCell>
        <mxCell id="fxNe-FiFpgeiYGXsgPsK-59" value="&lt;font face=&quot;Helvetica&quot;&gt;value: string;&lt;/font&gt;" style="text;strokeColor=none;fillColor=none;align=left;verticalAlign=middle;spacingLeft=4;spacingRight=4;overflow=hidden;points=[[0,0.5],[1,0.5]];portConstraint=eastwest;rotatable=0;whiteSpace=wrap;html=1;fontFamily=Architects Daughter;fontSource=https%3A%2F%2Ffonts.googleapis.com%2Fcss%3Ffamily%3DArchitects%2BDaughter;fontColor=#143642;sketch=1;curveFitting=1;jiggle=2;" parent="fxNe-FiFpgeiYGXsgPsK-53" vertex="1">
          <mxGeometry x="20" y="20" width="114" height="20" as="geometry" />
        </mxCell>
        <mxCell id="fxNe-FiFpgeiYGXsgPsK-60" value="&lt;font face=&quot;Helvetica&quot;&gt;filePath?: string;&lt;/font&gt;" style="text;strokeColor=none;fillColor=none;align=left;verticalAlign=middle;spacingLeft=4;spacingRight=4;overflow=hidden;points=[[0,0.5],[1,0.5]];portConstraint=eastwest;rotatable=0;whiteSpace=wrap;html=1;fontFamily=Architects Daughter;fontSource=https%3A%2F%2Ffonts.googleapis.com%2Fcss%3Ffamily%3DArchitects%2BDaughter;fontColor=#143642;sketch=1;curveFitting=1;jiggle=2;" parent="fxNe-FiFpgeiYGXsgPsK-53" vertex="1">
          <mxGeometry x="20" y="40" width="114" height="20" as="geometry" />
        </mxCell>
        <mxCell id="fxNe-FiFpgeiYGXsgPsK-61" value="&lt;font face=&quot;Helvetica&quot;&gt;line?: number;&lt;/font&gt;" style="text;strokeColor=none;fillColor=none;align=left;verticalAlign=middle;spacingLeft=4;spacingRight=4;overflow=hidden;points=[[0,0.5],[1,0.5]];portConstraint=eastwest;rotatable=0;whiteSpace=wrap;html=1;fontFamily=Architects Daughter;fontSource=https%3A%2F%2Ffonts.googleapis.com%2Fcss%3Ffamily%3DArchitects%2BDaughter;fontColor=#143642;sketch=1;curveFitting=1;jiggle=2;" parent="fxNe-FiFpgeiYGXsgPsK-53" vertex="1">
          <mxGeometry x="20" y="60" width="114" height="20" as="geometry" />
        </mxCell>
        <mxCell id="fxNe-FiFpgeiYGXsgPsK-62" value="&lt;font face=&quot;Helvetica&quot; style=&quot;font-size: 13px;&quot;&gt;&lt;span style=&quot;&quot;&gt;...&lt;/span&gt;&lt;/font&gt;" style="text;strokeColor=none;fillColor=none;align=left;verticalAlign=middle;spacingLeft=4;spacingRight=4;overflow=hidden;points=[[0,0.5],[1,0.5]];portConstraint=eastwest;rotatable=0;whiteSpace=wrap;html=1;fontFamily=Architects Daughter;fontSource=https%3A%2F%2Ffonts.googleapis.com%2Fcss%3Ffamily%3DArchitects%2BDaughter;fontColor=#143642;shadow=0;rounded=0;sketch=1;curveFitting=1;jiggle=2;fontStyle=1" parent="fxNe-FiFpgeiYGXsgPsK-53" vertex="1">
          <mxGeometry x="20" y="75" width="114" height="20" as="geometry" />
        </mxCell>
        <mxCell id="fxNe-FiFpgeiYGXsgPsK-72" value="&lt;font face=&quot;Helvetica&quot;&gt;&lt;b&gt;0&lt;/b&gt;&lt;/font&gt;" style="text;html=1;align=center;verticalAlign=middle;whiteSpace=wrap;rounded=0;fontFamily=Architects Daughter;fontSource=https%3A%2F%2Ffonts.googleapis.com%2Fcss%3Ffamily%3DArchitects%2BDaughter;fontColor=#143642;sketch=1;curveFitting=1;jiggle=2;" parent="fxNe-FiFpgeiYGXsgPsK-53" vertex="1">
          <mxGeometry x="3" y="45" width="14" height="10" as="geometry" />
        </mxCell>
        <mxCell id="fxNe-FiFpgeiYGXsgPsK-54" value="" style="swimlane;startSize=20;horizontal=0;html=1;hachureGap=4;strokeColor=#0F8B8D;fontFamily=Architects Daughter;fontSource=https%3A%2F%2Ffonts.googleapis.com%2Fcss%3Ffamily%3DArchitects%2BDaughter;fontColor=#143642;fillColor=#FAE5C7;sketch=1;curveFitting=1;jiggle=2;" parent="fxNe-FiFpgeiYGXsgPsK-52" vertex="1">
          <mxGeometry y="117" width="134" height="20" as="geometry" />
        </mxCell>
        <mxCell id="fxNe-FiFpgeiYGXsgPsK-64" value="&lt;font face=&quot;Helvetica&quot;&gt;&lt;span&gt;...&lt;/span&gt;&lt;/font&gt;" style="text;strokeColor=none;fillColor=none;align=left;verticalAlign=middle;spacingLeft=4;spacingRight=4;overflow=hidden;points=[[0,0.5],[1,0.5]];portConstraint=eastwest;rotatable=0;whiteSpace=wrap;html=1;fontFamily=Architects Daughter;fontSource=https%3A%2F%2Ffonts.googleapis.com%2Fcss%3Ffamily%3DArchitects%2BDaughter;fontColor=#143642;shadow=0;rounded=0;sketch=1;curveFitting=1;jiggle=2;fontSize=13;fontStyle=1" parent="fxNe-FiFpgeiYGXsgPsK-54" vertex="1">
          <mxGeometry x="20" width="114" height="20" as="geometry" />
        </mxCell>
        <mxCell id="fxNe-FiFpgeiYGXsgPsK-73" value="&lt;font face=&quot;Helvetica&quot;&gt;&lt;b&gt;1&lt;/b&gt;&lt;/font&gt;" style="text;html=1;align=center;verticalAlign=middle;whiteSpace=wrap;rounded=0;fontFamily=Architects Daughter;fontSource=https%3A%2F%2Ffonts.googleapis.com%2Fcss%3Ffamily%3DArchitects%2BDaughter;fontColor=#143642;sketch=1;curveFitting=1;jiggle=2;" parent="fxNe-FiFpgeiYGXsgPsK-54" vertex="1">
          <mxGeometry x="2" y="5" width="17" height="10" as="geometry" />
        </mxCell>
        <mxCell id="fxNe-FiFpgeiYGXsgPsK-55" value="" style="swimlane;startSize=20;horizontal=0;html=1;hachureGap=4;strokeColor=#0F8B8D;fontFamily=Architects Daughter;fontSource=https%3A%2F%2Ffonts.googleapis.com%2Fcss%3Ffamily%3DArchitects%2BDaughter;fontColor=#143642;fillColor=#FAE5C7;sketch=1;curveFitting=1;jiggle=2;" parent="fxNe-FiFpgeiYGXsgPsK-52" vertex="1">
          <mxGeometry y="137" width="134" height="20" as="geometry" />
        </mxCell>
        <mxCell id="fxNe-FiFpgeiYGXsgPsK-65" value="&lt;font face=&quot;Helvetica&quot;&gt;&lt;span&gt;...&lt;/span&gt;&lt;/font&gt;" style="text;strokeColor=none;fillColor=none;align=left;verticalAlign=middle;spacingLeft=4;spacingRight=4;overflow=hidden;points=[[0,0.5],[1,0.5]];portConstraint=eastwest;rotatable=0;whiteSpace=wrap;html=1;fontFamily=Architects Daughter;fontSource=https%3A%2F%2Ffonts.googleapis.com%2Fcss%3Ffamily%3DArchitects%2BDaughter;fontColor=#143642;shadow=0;rounded=0;sketch=1;curveFitting=1;jiggle=2;fontSize=13;fontStyle=1" parent="fxNe-FiFpgeiYGXsgPsK-55" vertex="1">
          <mxGeometry x="20" width="114" height="20" as="geometry" />
        </mxCell>
        <mxCell id="fxNe-FiFpgeiYGXsgPsK-74" value="&lt;font face=&quot;Helvetica&quot;&gt;&lt;b&gt;2&lt;/b&gt;&lt;/font&gt;" style="text;html=1;align=center;verticalAlign=middle;whiteSpace=wrap;rounded=0;fontFamily=Architects Daughter;fontSource=https%3A%2F%2Ffonts.googleapis.com%2Fcss%3Ffamily%3DArchitects%2BDaughter;fontColor=#143642;sketch=1;curveFitting=1;jiggle=2;" parent="fxNe-FiFpgeiYGXsgPsK-55" vertex="1">
          <mxGeometry x="2" y="6" width="17" height="10" as="geometry" />
        </mxCell>
        <mxCell id="fxNe-FiFpgeiYGXsgPsK-76" value="trigger event" style="swimlane;fontStyle=1;align=center;verticalAlign=top;childLayout=stackLayout;horizontal=1;startSize=26;horizontalStack=0;resizeParent=1;resizeParentMax=0;resizeLast=0;collapsible=1;marginBottom=0;whiteSpace=wrap;html=1;hachureGap=4;strokeColor=#d79b00;fontFamily=Helvetica;fillColor=#ffe6cc;sketch=1;curveFitting=1;jiggle=2;" parent="WIyWlLk6GJQsqaUBKTNV-1" vertex="1">
          <mxGeometry x="-761" y="289" width="200" height="130" as="geometry" />
        </mxCell>
        <mxCell id="fxNe-FiFpgeiYGXsgPsK-77" value="init" style="text;strokeColor=none;fillColor=none;align=center;verticalAlign=top;spacingLeft=4;spacingRight=4;overflow=hidden;rotatable=0;points=[[0,0.5],[1,0.5]];portConstraint=eastwest;whiteSpace=wrap;html=1;fontFamily=Helvetica;fontColor=#143642;sketch=1;curveFitting=1;jiggle=2;" parent="fxNe-FiFpgeiYGXsgPsK-76" vertex="1">
          <mxGeometry y="26" width="200" height="20" as="geometry" />
        </mxCell>
        <mxCell id="fxNe-FiFpgeiYGXsgPsK-79" value="hook file change" style="text;strokeColor=none;fillColor=none;align=center;verticalAlign=top;spacingLeft=4;spacingRight=4;overflow=hidden;rotatable=0;points=[[0,0.5],[1,0.5]];portConstraint=eastwest;whiteSpace=wrap;html=1;fontFamily=Helvetica;fontColor=#143642;sketch=1;curveFitting=1;jiggle=2;" parent="fxNe-FiFpgeiYGXsgPsK-76" vertex="1">
          <mxGeometry y="46" width="200" height="20" as="geometry" />
        </mxCell>
        <mxCell id="fxNe-FiFpgeiYGXsgPsK-81" value="i18n file change" style="text;strokeColor=none;fillColor=none;align=center;verticalAlign=top;spacingLeft=4;spacingRight=4;overflow=hidden;rotatable=0;points=[[0,0.5],[1,0.5]];portConstraint=eastwest;whiteSpace=wrap;html=1;fontFamily=Helvetica;fontColor=#143642;sketch=1;curveFitting=1;jiggle=2;" parent="fxNe-FiFpgeiYGXsgPsK-76" vertex="1">
          <mxGeometry y="66" width="200" height="20" as="geometry" />
        </mxCell>
        <mxCell id="fxNe-FiFpgeiYGXsgPsK-80" value="&lt;div style=&quot;line-height: 18px;&quot;&gt;&lt;b&gt;&lt;span style=&quot;background-color: transparent; color: light-dark(rgb(20, 54, 66), rgb(173, 202, 213));&quot;&gt;config.&lt;/span&gt;hookFilePattern&lt;/b&gt; change&lt;/div&gt;" style="text;strokeColor=none;fillColor=none;align=center;verticalAlign=top;spacingLeft=4;spacingRight=4;overflow=hidden;rotatable=0;points=[[0,0.5],[1,0.5]];portConstraint=eastwest;whiteSpace=wrap;html=1;fontFamily=Helvetica;fontColor=#143642;sketch=1;curveFitting=1;jiggle=2;" parent="fxNe-FiFpgeiYGXsgPsK-76" vertex="1">
          <mxGeometry y="86" width="200" height="20" as="geometry" />
        </mxCell>
        <mxCell id="fxNe-FiFpgeiYGXsgPsK-82" value="&lt;b&gt;config.i18nFilePattern&lt;/b&gt; change" style="text;strokeColor=none;fillColor=none;align=center;verticalAlign=top;spacingLeft=4;spacingRight=4;overflow=hidden;rotatable=0;points=[[0,0.5],[1,0.5]];portConstraint=eastwest;whiteSpace=wrap;html=1;fontFamily=Helvetica;fontColor=#143642;sketch=1;curveFitting=1;jiggle=2;" parent="fxNe-FiFpgeiYGXsgPsK-76" vertex="1">
          <mxGeometry y="106" width="200" height="24" as="geometry" />
        </mxCell>
        <mxCell id="fxNe-FiFpgeiYGXsgPsK-85" value="command convert" style="text;html=1;align=center;verticalAlign=middle;whiteSpace=wrap;rounded=0;fontFamily=Helvetica;fontColor=#143642;fontStyle=1;sketch=1;curveFitting=1;jiggle=2;" parent="WIyWlLk6GJQsqaUBKTNV-1" vertex="1">
          <mxGeometry x="-287" y="259" width="120" height="20" as="geometry" />
        </mxCell>
        <mxCell id="6vJvpQA5Eh7JnFEgR5Vv-0" value="code" style="text;html=1;align=center;verticalAlign=middle;whiteSpace=wrap;rounded=0;fontFamily=Helvetica;fontColor=#143642;fontStyle=1;sketch=1;curveFitting=1;jiggle=2;" parent="WIyWlLk6GJQsqaUBKTNV-1" vertex="1">
          <mxGeometry x="-31" y="798" width="51.5" height="22" as="geometry" />
        </mxCell>
        <mxCell id="6vJvpQA5Eh7JnFEgR5Vv-1" value="&lt;font face=&quot;Helvetica&quot;&gt;hook.matchI18n&lt;/font&gt;" style="ellipse;whiteSpace=wrap;html=1;sketch=1;hachureGap=4;jiggle=2;curveFitting=1;fontFamily=Architects Daughter;fontSource=https%3A%2F%2Ffonts.googleapis.com%2Fcss%3Ffamily%3DArchitects%2BDaughter;fillColor=#dae8fc;strokeColor=#6c8ebf;flipV=0;" parent="WIyWlLk6GJQsqaUBKTNV-1" vertex="1">
          <mxGeometry x="-282" y="737" width="110" height="80" as="geometry" />
        </mxCell>
        <mxCell id="6vJvpQA5Eh7JnFEgR5Vv-10" value="" style="endArrow=classic;html=1;rounded=0;sketch=1;hachureGap=4;jiggle=2;curveFitting=1;fontFamily=Architects Daughter;fontSource=https%3A%2F%2Ffonts.googleapis.com%2Fcss%3Ffamily%3DArchitects%2BDaughter;entryX=1;entryY=0;entryDx=0;entryDy=60;entryPerimeter=0;curved=1;fillColor=#f8cecc;strokeColor=#b85450;dashed=1;" parent="WIyWlLk6GJQsqaUBKTNV-1" source="6vJvpQA5Eh7JnFEgR5Vv-35" target="fxNe-FiFpgeiYGXsgPsK-17" edge="1">
          <mxGeometry width="50" height="50" relative="1" as="geometry">
            <mxPoint x="-411.96399999999994" y="1062" as="sourcePoint" />
            <mxPoint x="-436" y="690" as="targetPoint" />
            <Array as="points">
              <mxPoint x="-190" y="630" />
            </Array>
          </mxGeometry>
        </mxCell>
        <mxCell id="GVHe9jOtXd_tW0DwuR6Y-1" value="query" style="edgeLabel;html=1;align=center;verticalAlign=middle;resizable=0;points=[];sketch=1;hachureGap=4;jiggle=2;curveFitting=1;fontFamily=Helvetica;" parent="6vJvpQA5Eh7JnFEgR5Vv-10" vertex="1" connectable="0">
          <mxGeometry x="0.1786" relative="1" as="geometry">
            <mxPoint x="28" y="24" as="offset" />
          </mxGeometry>
        </mxCell>
        <mxCell id="6vJvpQA5Eh7JnFEgR5Vv-28" value="" style="endArrow=classic;html=1;rounded=0;sketch=1;hachureGap=4;jiggle=2;curveFitting=1;fontFamily=Architects Daughter;fontSource=https%3A%2F%2Ffonts.googleapis.com%2Fcss%3Ffamily%3DArchitects%2BDaughter;curved=1;dashed=1;fillColor=#f8cecc;strokeColor=#b85450;exitX=0.978;exitY=0.634;exitDx=0;exitDy=0;exitPerimeter=0;" parent="WIyWlLk6GJQsqaUBKTNV-1" source="6vJvpQA5Eh7JnFEgR5Vv-1" target="6vJvpQA5Eh7JnFEgR5Vv-35" edge="1">
          <mxGeometry width="50" height="50" relative="1" as="geometry">
            <mxPoint x="-187" y="801" as="sourcePoint" />
            <mxPoint x="-233" y="789" as="targetPoint" />
            <Array as="points">
              <mxPoint x="-86" y="792" />
            </Array>
          </mxGeometry>
        </mxCell>
        <mxCell id="6vJvpQA5Eh7JnFEgR5Vv-35" value="" style="sketch=0;outlineConnect=0;fontColor=#232F3E;gradientColor=none;fillColor=#000000;strokeColor=none;dashed=0;verticalLabelPosition=bottom;verticalAlign=top;align=center;html=1;fontSize=12;fontStyle=0;aspect=fixed;pointerEvents=1;shape=mxgraph.aws4.source_code;hachureGap=4;jiggle=2;curveFitting=1;fontFamily=Architects Daughter;fontSource=https%3A%2F%2Ffonts.googleapis.com%2Fcss%3Ffamily%3DArchitects%2BDaughter;flipV=0;" parent="WIyWlLk6GJQsqaUBKTNV-1" vertex="1">
          <mxGeometry x="-28.75" y="720" width="47" height="78" as="geometry" />
        </mxCell>
        <mxCell id="6vJvpQA5Eh7JnFEgR5Vv-38" value="&lt;span style=&quot;color: rgb(51, 51, 51); font-family: Helvetica;&quot;&gt;hook.collectI18n&lt;/span&gt;" style="ellipse;whiteSpace=wrap;html=1;sketch=1;hachureGap=4;jiggle=2;curveFitting=1;fontFamily=Architects Daughter;fontSource=https%3A%2F%2Ffonts.googleapis.com%2Fcss%3Ffamily%3DArchitects%2BDaughter;fillColor=#dae8fc;strokeColor=#6c8ebf;" parent="WIyWlLk6GJQsqaUBKTNV-1" vertex="1">
          <mxGeometry x="-694" y="504.5" width="120" height="80" as="geometry" />
        </mxCell>
        <mxCell id="6vJvpQA5Eh7JnFEgR5Vv-39" value="command paste" style="text;html=1;align=center;verticalAlign=middle;whiteSpace=wrap;rounded=0;fontFamily=Helvetica;fontColor=#143642;fontStyle=1;sketch=1;curveFitting=1;jiggle=2;" parent="WIyWlLk6GJQsqaUBKTNV-1" vertex="1">
          <mxGeometry x="-58.94" y="259" width="107.38" height="20" as="geometry" />
        </mxCell>
        <mxCell id="6vJvpQA5Eh7JnFEgR5Vv-40" value="&lt;font face=&quot;Helvetica&quot;&gt;clipboard text&lt;/font&gt;" style="rounded=1;whiteSpace=wrap;html=1;sketch=1;hachureGap=4;jiggle=2;curveFitting=1;fontFamily=Architects Daughter;fontSource=https%3A%2F%2Ffonts.googleapis.com%2Fcss%3Ffamily%3DArchitects%2BDaughter;" parent="WIyWlLk6GJQsqaUBKTNV-1" vertex="1">
          <mxGeometry x="-65.25" y="289" width="120" height="60" as="geometry" />
        </mxCell>
        <mxCell id="6vJvpQA5Eh7JnFEgR5Vv-41" value="match" style="rounded=1;whiteSpace=wrap;html=1;sketch=1;hachureGap=4;jiggle=2;curveFitting=1;fontFamily=Helvetica;" parent="WIyWlLk6GJQsqaUBKTNV-1" vertex="1">
          <mxGeometry x="-287" y="289" width="120" height="60" as="geometry" />
        </mxCell>
        <mxCell id="6vJvpQA5Eh7JnFEgR5Vv-42" value="" style="endArrow=classic;html=1;rounded=0;sketch=1;hachureGap=4;jiggle=2;curveFitting=1;fontFamily=Architects Daughter;fontSource=https%3A%2F%2Ffonts.googleapis.com%2Fcss%3Ffamily%3DArchitects%2BDaughter;entryX=1;entryY=0.5;entryDx=0;entryDy=0;exitX=0;exitY=0.5;exitDx=0;exitDy=0;" parent="WIyWlLk6GJQsqaUBKTNV-1" source="6vJvpQA5Eh7JnFEgR5Vv-40" target="6vJvpQA5Eh7JnFEgR5Vv-41" edge="1">
          <mxGeometry width="50" height="50" relative="1" as="geometry">
            <mxPoint x="-47" y="319" as="sourcePoint" />
            <mxPoint x="-57" y="299" as="targetPoint" />
          </mxGeometry>
        </mxCell>
        <mxCell id="upDYWRYAVy62inXBpD9i-6" value="provide" style="edgeLabel;html=1;align=center;verticalAlign=middle;resizable=0;points=[];sketch=1;hachureGap=4;jiggle=2;curveFitting=1;fontFamily=Helvetica;" parent="6vJvpQA5Eh7JnFEgR5Vv-42" vertex="1" connectable="0">
          <mxGeometry x="0.0163" y="-1" relative="1" as="geometry">
            <mxPoint x="4" y="-1" as="offset" />
          </mxGeometry>
        </mxCell>
        <mxCell id="6vJvpQA5Eh7JnFEgR5Vv-43" value="" style="endArrow=classic;html=1;rounded=0;sketch=1;hachureGap=4;jiggle=2;curveFitting=1;fontFamily=Architects Daughter;fontSource=https%3A%2F%2Ffonts.googleapis.com%2Fcss%3Ffamily%3DArchitects%2BDaughter;entryX=0.5;entryY=0;entryDx=0;entryDy=0;exitX=0.5;exitY=1;exitDx=0;exitDy=0;" parent="WIyWlLk6GJQsqaUBKTNV-1" source="6vJvpQA5Eh7JnFEgR5Vv-41" target="6vJvpQA5Eh7JnFEgR5Vv-44" edge="1">
          <mxGeometry width="50" height="50" relative="1" as="geometry">
            <mxPoint x="43" y="389" as="sourcePoint" />
            <mxPoint x="-87" y="389" as="targetPoint" />
          </mxGeometry>
        </mxCell>
        <mxCell id="6vJvpQA5Eh7JnFEgR5Vv-44" value="is repeat" style="rounded=1;whiteSpace=wrap;html=1;sketch=1;hachureGap=4;jiggle=2;curveFitting=1;fontFamily=Helvetica;direction=east;" parent="WIyWlLk6GJQsqaUBKTNV-1" vertex="1">
          <mxGeometry x="-287" y="424" width="120" height="60" as="geometry" />
        </mxCell>
        <mxCell id="6vJvpQA5Eh7JnFEgR5Vv-45" value="" style="endArrow=classic;dashed=1;html=1;rounded=0;sketch=1;hachureGap=4;jiggle=2;curveFitting=1;fontFamily=Architects Daughter;fontSource=https%3A%2F%2Ffonts.googleapis.com%2Fcss%3Ffamily%3DArchitects%2BDaughter;curved=1;fillColor=#f8cecc;strokeColor=#b85450;startArrow=classic;startFill=1;endFill=1;entryX=0;entryY=0.75;entryDx=0;entryDy=0;exitX=0.638;exitY=0.018;exitDx=0;exitDy=0;exitPerimeter=0;" parent="WIyWlLk6GJQsqaUBKTNV-1" source="fxNe-FiFpgeiYGXsgPsK-17" target="6vJvpQA5Eh7JnFEgR5Vv-44" edge="1">
          <mxGeometry width="50" height="50" relative="1" as="geometry">
            <mxPoint x="-439" y="600" as="sourcePoint" />
            <mxPoint x="-336" y="460" as="targetPoint" />
            <Array as="points">
              <mxPoint x="-410" y="500" />
            </Array>
          </mxGeometry>
        </mxCell>
        <mxCell id="6vJvpQA5Eh7JnFEgR5Vv-46" value="query" style="edgeLabel;html=1;align=center;verticalAlign=middle;resizable=0;points=[];sketch=1;hachureGap=4;jiggle=2;curveFitting=1;fontFamily=Helvetica;" parent="6vJvpQA5Eh7JnFEgR5Vv-45" vertex="1" connectable="0">
          <mxGeometry x="0.0951" y="-9" relative="1" as="geometry">
            <mxPoint x="3" y="10" as="offset" />
          </mxGeometry>
        </mxCell>
        <mxCell id="6vJvpQA5Eh7JnFEgR5Vv-48" value="" style="endArrow=classic;html=1;rounded=0;sketch=1;hachureGap=4;jiggle=2;curveFitting=1;fontFamily=Architects Daughter;fontSource=https%3A%2F%2Ffonts.googleapis.com%2Fcss%3Ffamily%3DArchitects%2BDaughter;entryX=0.5;entryY=0;entryDx=0;entryDy=0;exitX=0.5;exitY=1;exitDx=0;exitDy=0;" parent="WIyWlLk6GJQsqaUBKTNV-1" source="6vJvpQA5Eh7JnFEgR5Vv-44" target="6vJvpQA5Eh7JnFEgR5Vv-49" edge="1">
          <mxGeometry width="50" height="50" relative="1" as="geometry">
            <mxPoint x="-227.70999999999998" y="469" as="sourcePoint" />
            <mxPoint x="-227" y="529" as="targetPoint" />
          </mxGeometry>
        </mxCell>
        <mxCell id="6vJvpQA5Eh7JnFEgR5Vv-49" value="&lt;span style=&quot;color: rgb(51, 51, 51); font-family: Helvetica;&quot;&gt;hook.convert&lt;/span&gt;" style="ellipse;whiteSpace=wrap;html=1;sketch=1;hachureGap=4;jiggle=2;curveFitting=1;fontFamily=Architects Daughter;fontSource=https%3A%2F%2Ffonts.googleapis.com%2Fcss%3Ffamily%3DArchitects%2BDaughter;fillColor=#dae8fc;strokeColor=#6c8ebf;" parent="WIyWlLk6GJQsqaUBKTNV-1" vertex="1">
          <mxGeometry x="-287" y="560" width="120" height="80" as="geometry" />
        </mxCell>
        <mxCell id="6vJvpQA5Eh7JnFEgR5Vv-50" value="&lt;span style=&quot;color: rgb(51, 51, 51); font-family: Helvetica;&quot;&gt;hook.write&lt;/span&gt;" style="ellipse;whiteSpace=wrap;html=1;sketch=1;hachureGap=4;jiggle=2;curveFitting=1;fontFamily=Architects Daughter;fontSource=https%3A%2F%2Ffonts.googleapis.com%2Fcss%3Ffamily%3DArchitects%2BDaughter;fillColor=#dae8fc;strokeColor=#6c8ebf;" parent="WIyWlLk6GJQsqaUBKTNV-1" vertex="1">
          <mxGeometry x="-65.25" y="560" width="120" height="80" as="geometry" />
        </mxCell>
        <mxCell id="GVHe9jOtXd_tW0DwuR6Y-0" value="" style="endArrow=none;html=1;rounded=0;sketch=1;hachureGap=4;jiggle=2;curveFitting=1;fontFamily=Architects Daughter;fontSource=https%3A%2F%2Ffonts.googleapis.com%2Fcss%3Ffamily%3DArchitects%2BDaughter;curved=1;dashed=1;fillColor=#f8cecc;strokeColor=#b85450;exitX=0.855;exitY=1;exitDx=0;exitDy=-4.35;exitPerimeter=0;startFill=0;entryX=-0.005;entryY=0.356;entryDx=0;entryDy=0;entryPerimeter=0;" parent="WIyWlLk6GJQsqaUBKTNV-1" source="fxNe-FiFpgeiYGXsgPsK-17" target="6vJvpQA5Eh7JnFEgR5Vv-1" edge="1">
          <mxGeometry width="50" height="50" relative="1" as="geometry">
            <mxPoint x="-476" y="720" as="sourcePoint" />
            <mxPoint x="-303" y="721" as="targetPoint" />
            <Array as="points">
              <mxPoint x="-380" y="740" />
            </Array>
          </mxGeometry>
        </mxCell>
        <mxCell id="GVHe9jOtXd_tW0DwuR6Y-2" value="result" style="edgeLabel;html=1;align=center;verticalAlign=middle;resizable=0;points=[];sketch=1;hachureGap=4;jiggle=2;curveFitting=1;fontFamily=Helvetica;" parent="GVHe9jOtXd_tW0DwuR6Y-0" vertex="1" connectable="0">
          <mxGeometry x="-0.2425" y="6" relative="1" as="geometry">
            <mxPoint x="14" y="6" as="offset" />
          </mxGeometry>
        </mxCell>
        <mxCell id="GVHe9jOtXd_tW0DwuR6Y-3" value="" style="endArrow=classic;html=1;rounded=0;sketch=1;hachureGap=4;jiggle=2;curveFitting=1;fontFamily=Architects Daughter;fontSource=https%3A%2F%2Ffonts.googleapis.com%2Fcss%3Ffamily%3DArchitects%2BDaughter;entryX=0;entryY=0.5;entryDx=0;entryDy=0;exitX=1;exitY=0.5;exitDx=0;exitDy=0;" parent="WIyWlLk6GJQsqaUBKTNV-1" source="6vJvpQA5Eh7JnFEgR5Vv-49" target="6vJvpQA5Eh7JnFEgR5Vv-50" edge="1">
          <mxGeometry width="50" height="50" relative="1" as="geometry">
            <mxPoint x="-127" y="530" as="sourcePoint" />
            <mxPoint x="-127" y="610" as="targetPoint" />
          </mxGeometry>
        </mxCell>
        <mxCell id="GVHe9jOtXd_tW0DwuR6Y-6" value="" style="endArrow=classic;html=1;rounded=0;sketch=1;hachureGap=4;jiggle=2;curveFitting=1;fontFamily=Architects Daughter;fontSource=https%3A%2F%2Ffonts.googleapis.com%2Fcss%3Ffamily%3DArchitects%2BDaughter;exitX=0.5;exitY=1;exitDx=0;exitDy=0;" parent="WIyWlLk6GJQsqaUBKTNV-1" source="6vJvpQA5Eh7JnFEgR5Vv-50" target="6vJvpQA5Eh7JnFEgR5Vv-35" edge="1">
          <mxGeometry width="50" height="50" relative="1" as="geometry">
            <mxPoint y="610" as="sourcePoint" />
            <mxPoint y="690" as="targetPoint" />
          </mxGeometry>
        </mxCell>
        <mxCell id="GVHe9jOtXd_tW0DwuR6Y-7" value="write" style="edgeLabel;html=1;align=center;verticalAlign=middle;resizable=0;points=[];sketch=1;hachureGap=4;jiggle=2;curveFitting=1;fontFamily=Helvetica;" parent="GVHe9jOtXd_tW0DwuR6Y-6" vertex="1" connectable="0">
          <mxGeometry x="-0.1505" relative="1" as="geometry">
            <mxPoint x="-1" y="5" as="offset" />
          </mxGeometry>
        </mxCell>
        <mxCell id="upDYWRYAVy62inXBpD9i-24" value="&lt;span style=&quot;color: rgb(51, 51, 51); font-family: Helvetica;&quot;&gt;hook.match&lt;/span&gt;" style="ellipse;whiteSpace=wrap;html=1;sketch=1;hachureGap=4;jiggle=2;curveFitting=1;fontFamily=Architects Daughter;fontSource=https%3A%2F%2Ffonts.googleapis.com%2Fcss%3Ffamily%3DArchitects%2BDaughter;fillColor=#dae8fc;strokeColor=#6c8ebf;" parent="WIyWlLk6GJQsqaUBKTNV-1" vertex="1">
          <mxGeometry x="-514.5" y="376" width="80" height="30" as="geometry" />
        </mxCell>
        <mxCell id="upDYWRYAVy62inXBpD9i-33" value="&amp;amp; match chinese" style="text;html=1;align=center;verticalAlign=middle;whiteSpace=wrap;rounded=0;fontFamily=Helvetica;" parent="WIyWlLk6GJQsqaUBKTNV-1" vertex="1">
          <mxGeometry x="-428.75" y="374" width="91" height="34" as="geometry" />
        </mxCell>
        <mxCell id="upDYWRYAVy62inXBpD9i-34" value="match provided&amp;nbsp;text" style="text;html=1;align=center;verticalAlign=middle;whiteSpace=wrap;rounded=0;fontFamily=Helvetica;" parent="WIyWlLk6GJQsqaUBKTNV-1" vertex="1">
          <mxGeometry x="-445.75" y="295" width="108" height="34" as="geometry" />
        </mxCell>
        <mxCell id="upDYWRYAVy62inXBpD9i-35" value="match document selections" style="text;html=1;align=center;verticalAlign=middle;whiteSpace=wrap;rounded=0;fontFamily=Helvetica;" parent="WIyWlLk6GJQsqaUBKTNV-1" vertex="1">
          <mxGeometry x="-485.75" y="331" width="148" height="34" as="geometry" />
        </mxCell>
        <mxCell id="3lRg1p8vy7kTpqCE6tFp-0" value="" style="endArrow=none;dashed=1;html=1;dashPattern=1 3;strokeWidth=1;rounded=1;sketch=1;hachureGap=4;jiggle=2;curveFitting=1;fontFamily=Architects Daughter;fontSource=https%3A%2F%2Ffonts.googleapis.com%2Fcss%3Ffamily%3DArchitects%2BDaughter;exitX=0;exitY=0.5;exitDx=0;exitDy=0;curved=0;entryX=0;entryY=1;entryDx=0;entryDy=0;strokeColor=#999999;" parent="WIyWlLk6GJQsqaUBKTNV-1" source="6vJvpQA5Eh7JnFEgR5Vv-41" edge="1">
          <mxGeometry width="50" height="50" relative="1" as="geometry">
            <mxPoint x="-467.25" y="384.5" as="sourcePoint" />
            <mxPoint x="-529" y="408.9999999999999" as="targetPoint" />
            <Array as="points">
              <mxPoint x="-330" y="410" />
            </Array>
          </mxGeometry>
        </mxCell>
        <mxCell id="3lRg1p8vy7kTpqCE6tFp-1" value="" style="endArrow=none;dashed=1;html=1;dashPattern=1 3;strokeWidth=1;rounded=1;sketch=1;hachureGap=4;jiggle=2;curveFitting=1;fontFamily=Architects Daughter;fontSource=https%3A%2F%2Ffonts.googleapis.com%2Fcss%3Ffamily%3DArchitects%2BDaughter;exitX=0;exitY=0.5;exitDx=0;exitDy=0;curved=0;strokeColor=#999999;" parent="WIyWlLk6GJQsqaUBKTNV-1" source="6vJvpQA5Eh7JnFEgR5Vv-41" edge="1">
          <mxGeometry width="50" height="50" relative="1" as="geometry">
            <mxPoint x="-287" y="275" as="sourcePoint" />
            <mxPoint x="-500" y="366" as="targetPoint" />
            <Array as="points">
              <mxPoint x="-330" y="366" />
            </Array>
          </mxGeometry>
        </mxCell>
        <mxCell id="3lRg1p8vy7kTpqCE6tFp-4" value="" style="endArrow=none;dashed=1;html=1;dashPattern=1 3;strokeWidth=1;rounded=1;sketch=1;hachureGap=4;jiggle=2;curveFitting=1;fontFamily=Architects Daughter;fontSource=https%3A%2F%2Ffonts.googleapis.com%2Fcss%3Ffamily%3DArchitects%2BDaughter;exitX=0;exitY=0.5;exitDx=0;exitDy=0;curved=0;strokeColor=#999999;" parent="WIyWlLk6GJQsqaUBKTNV-1" source="6vJvpQA5Eh7JnFEgR5Vv-41" edge="1">
          <mxGeometry width="50" height="50" relative="1" as="geometry">
            <mxPoint x="-287" y="272" as="sourcePoint" />
            <mxPoint x="-460" y="330" as="targetPoint" />
            <Array as="points">
              <mxPoint x="-330" y="330" />
            </Array>
          </mxGeometry>
        </mxCell>
        <mxCell id="3lRg1p8vy7kTpqCE6tFp-5" value="filter by &lt;b style=&quot;&quot;&gt;config.conflictPolicy&lt;/b&gt;" style="text;html=1;align=center;verticalAlign=middle;whiteSpace=wrap;rounded=0;fontFamily=Helvetica;direction=east;" parent="WIyWlLk6GJQsqaUBKTNV-1" vertex="1">
          <mxGeometry x="-130" y="430" width="165.75" height="34" as="geometry" />
        </mxCell>
        <mxCell id="3lRg1p8vy7kTpqCE6tFp-7" value="" style="endArrow=none;dashed=1;html=1;dashPattern=1 3;strokeWidth=1;rounded=1;sketch=1;hachureGap=4;jiggle=2;curveFitting=1;fontFamily=Architects Daughter;fontSource=https%3A%2F%2Ffonts.googleapis.com%2Fcss%3Ffamily%3DArchitects%2BDaughter;exitX=1;exitY=0.5;exitDx=0;exitDy=0;curved=0;strokeColor=#999999;" parent="WIyWlLk6GJQsqaUBKTNV-1" source="6vJvpQA5Eh7JnFEgR5Vv-44" edge="1">
          <mxGeometry width="50" height="50" relative="1" as="geometry">
            <mxPoint x="-167" y="454" as="sourcePoint" />
            <mxPoint x="40" y="465" as="targetPoint" />
            <Array as="points">
              <mxPoint x="-124" y="465" />
            </Array>
          </mxGeometry>
        </mxCell>
      </root>
    </mxGraphModel>
  </diagram>
</mxfile>
